<?xml version="1.0" encoding="utf-8"?>
<svg viewBox="121.792 57.846 158.798 58.908" xmlns="http://www.w3.org/2000/svg">
  <defs>
    <linearGradient gradientUnits="userSpaceOnUse" x1="200.281" y1="49.578" x2="200.281" y2="131.172" id="gradient-0" gradientTransform="matrix(-0.26122, 0.965286, -1.371012, -0.371021, 378.617098, -69.14078)">
      <stop offset="0" style="stop-color: rgb(199, 30, 81);"/>
      <stop offset="1" style="stop-color: rgb(252, 196, 68);"/>
    </linearGradient>
  </defs>
  <path d="M 146.271 109.043 L 139.291 109.043 C 135.918 109.043 133.314 108.146 131.481 106.353 C 129.648 104.56 128.731 101.98 128.731 98.613 L 128.731 78.323 C 128.731 74.95 129.648 72.37 131.481 70.583 C 133.314 68.79 135.918 67.893 139.291 67.893 L 146.271 67.893 C 149.598 67.893 152.188 68.8 154.041 70.613 C 155.901 72.426 156.831 74.996 156.831 78.323 L 156.831 81.333 C 156.831 82.273 156.361 82.743 155.421 82.743 L 150.041 82.743 C 149.148 82.743 148.701 82.273 148.701 81.333 L 148.701 78.703 C 148.701 77.343 148.411 76.373 147.831 75.793 C 147.258 75.22 146.288 74.933 144.921 74.933 L 140.571 74.933 C 139.251 74.933 138.301 75.22 137.721 75.793 C 137.148 76.373 136.861 77.343 136.861 78.703 L 136.861 98.223 C 136.861 99.59 137.148 100.563 137.721 101.143 C 138.301 101.716 139.251 102.003 140.571 102.003 L 144.921 102.003 C 146.288 102.003 147.258 101.716 147.831 101.143 C 148.411 100.563 148.701 99.59 148.701 98.223 L 148.701 95.603 C 148.701 94.663 149.148 94.193 150.041 94.193 L 155.421 94.193 C 156.361 94.193 156.831 94.663 156.831 95.603 L 156.831 98.613 C 156.831 101.94 155.901 104.51 154.041 106.323 C 152.188 108.136 149.598 109.043 146.271 109.043 ZM 169.939 109.043 L 164.499 109.043 C 163.606 109.043 163.159 108.596 163.159 107.703 L 163.159 65.393 C 163.159 64.5 163.606 64.053 164.499 64.053 L 169.939 64.053 C 170.839 64.053 171.289 64.5 171.289 65.393 L 171.289 79.863 L 171.539 79.863 C 172.479 77.556 174.573 76.403 177.819 76.403 L 179.859 76.403 C 186.559 76.403 189.909 79.88 189.909 86.833 L 189.909 107.703 C 189.909 108.596 189.439 109.043 188.499 109.043 L 183.129 109.043 C 182.229 109.043 181.779 108.596 181.779 107.703 L 181.779 87.223 C 181.779 85.856 181.493 84.883 180.919 84.303 C 180.346 83.73 179.376 83.443 178.009 83.443 L 175.699 83.443 C 172.759 83.443 171.289 85.063 171.289 88.303 L 171.289 107.703 C 171.289 108.596 170.839 109.043 169.939 109.043 ZM 220.688 109.043 L 206.548 109.043 C 203.175 109.043 200.571 108.146 198.738 106.353 C 196.905 104.56 195.988 101.98 195.988 98.613 L 195.988 86.833 C 195.988 83.466 196.905 80.886 198.738 79.093 C 200.571 77.3 203.175 76.403 206.548 76.403 L 211.608 76.403 C 214.975 76.403 217.575 77.3 219.408 79.093 C 221.248 80.886 222.168 83.466 222.168 86.833 L 222.168 94.963 C 222.168 95.856 221.718 96.303 220.818 96.303 L 204.758 96.303 C 204.245 96.303 203.988 96.54 203.988 97.013 L 203.988 98.423 C 203.988 99.743 204.275 100.69 204.848 101.263 C 205.428 101.843 206.401 102.133 207.768 102.133 L 220.688 102.133 C 221.588 102.133 222.038 102.603 222.038 103.543 L 222.038 107.763 C 222.038 108.23 221.941 108.56 221.748 108.753 C 221.555 108.946 221.201 109.043 220.688 109.043 Z M 204.758 90.863 L 213.458 90.863 C 213.931 90.863 214.168 90.63 214.168 90.163 L 214.168 87.093 C 214.168 85.726 213.888 84.766 213.328 84.213 C 212.775 83.66 211.815 83.383 210.448 83.383 L 207.768 83.383 C 206.401 83.383 205.441 83.66 204.888 84.213 C 204.328 84.766 204.048 85.726 204.048 87.093 L 204.048 90.163 C 204.048 90.63 204.285 90.863 204.758 90.863 ZM 240.591 109.043 L 228.431 109.043 C 227.577 109.043 227.151 108.596 227.151 107.703 L 227.151 103.603 C 227.151 103.136 227.237 102.806 227.411 102.613 C 227.577 102.42 227.917 102.323 228.431 102.323 L 239.121 102.323 C 241.214 102.323 242.261 101.683 242.261 100.403 L 242.261 100.083 C 242.261 99.056 241.384 98.076 239.631 97.143 L 233.301 93.623 C 231.121 92.51 229.521 91.313 228.501 90.033 C 227.474 88.753 226.961 87.11 226.961 85.103 C 226.961 82.116 227.751 79.92 229.331 78.513 C 230.911 77.106 233.384 76.403 236.751 76.403 L 247.441 76.403 C 248.294 76.403 248.721 76.85 248.721 77.743 L 248.721 81.903 C 248.721 82.376 248.634 82.71 248.461 82.903 C 248.294 83.09 247.954 83.183 247.441 83.183 L 238.541 83.183 C 236.454 83.183 235.411 83.716 235.411 84.783 L 235.411 85.103 C 235.411 86.043 236.327 87.003 238.161 87.983 L 244.621 91.823 C 246.841 93.023 248.401 94.25 249.301 95.503 C 250.194 96.763 250.641 98.416 250.641 100.463 C 250.641 106.183 247.291 109.043 240.591 109.043 ZM 256.97 83.443 L 254.41 83.443 C 253.903 83.443 253.553 83.356 253.36 83.183 C 253.166 83.016 253.07 82.676 253.07 82.163 L 253.07 77.743 C 253.07 76.85 253.516 76.403 254.41 76.403 L 256.97 76.403 C 257.443 76.403 257.68 76.17 257.68 75.703 L 257.68 69.623 C 257.68 68.723 258.15 68.273 259.09 68.273 L 264.46 68.273 C 265.36 68.273 265.81 68.723 265.81 69.623 L 265.81 75.703 C 265.81 76.17 266.063 76.403 266.57 76.403 L 271.57 76.403 C 272.463 76.403 272.91 76.85 272.91 77.743 L 272.91 82.163 C 272.91 82.63 272.813 82.96 272.62 83.153 C 272.426 83.346 272.076 83.443 271.57 83.443 L 266.57 83.443 C 266.063 83.443 265.81 83.676 265.81 84.143 L 265.81 98.293 C 265.81 99.613 266.106 100.563 266.7 101.143 C 267.3 101.716 268.283 102.003 269.65 102.003 L 272.21 102.003 C 273.103 102.003 273.55 102.45 273.55 103.343 L 273.55 107.763 C 273.55 108.23 273.453 108.56 273.26 108.753 C 273.066 108.946 272.716 109.043 272.21 109.043 L 268.3 109.043 C 264.933 109.043 262.32 108.146 260.46 106.353 C 258.606 104.56 257.68 102 257.68 98.673 L 257.68 84.143 C 257.68 83.676 257.443 83.443 256.97 83.443 Z" transform="matrix(1, 0, 0, 1, 0, -0.000005000000783184078)" style="fill: url(#gradient-0); paint-order: fill; white-space: pre;"/>
</svg>